{"midiList":[{"start":11.9,"end":12.24,"pitch":66,"velocity":100},{"start":12.24,"end":12.66,"pitch":64,"velocity":100},{"start":12.66,"end":13.28,"pitch":62,"velocity":100},{"start":13.86,"end":14.2,"pitch":62,"velocity":100},{"start":14.24,"end":14.58,"pitch":62,"velocity":100},{"start":14.58,"end":14.96,"pitch":64,"velocity":100},{"start":14.96,"end":15.36,"pitch":66,"velocity":100},{"start":15.36,"end":15.74,"pitch":67,"velocity":100},{"start":15.74,"end":16.36,"pitch":66,"velocity":100},{"start":16.88,"end":17.22,"pitch":67,"velocity":100},{"start":17.22,"end":17.62,"pitch":64,"velocity":100},{"start":17.62,"end":17.86,"pitch":62,"velocity":100},{"start":17.86,"end":18.36,"pitch":64,"velocity":100},{"start":18.36,"end":19.34,"pitch":62,"velocity":100},{"start":19.8,"end":20.18,"pitch":59,"velocity":100},{"start":20.18,"end":20.4,"pitch":61,"velocity":100},{"start":20.4,"end":20.88,"pitch":62,"velocity":100},{"start":21.22,"end":21.56,"pitch":62,"velocity":100},{"start":21.56,"end":21.92,"pitch":64,"velocity":100},{"start":21.92,"end":22.34,"pitch":66,"velocity":100},{"start":22.34,"end":22.68,"pitch":61,"velocity":100},{"start":22.68,"end":23.34,"pitch":62,"velocity":100},{"start":24.22,"end":24.62,"pitch":62,"velocity":100},{"start":24.62,"end":24.96,"pitch":61,"velocity":100},{"start":24.96,"end":25.7,"pitch":59,"velocity":100},{"start":26.14,"end":26.52,"pitch":71,"velocity":100},{"start":26.52,"end":26.9,"pitch":69,"velocity":100},{"start":26.9,"end":27.28,"pitch":67,"velocity":100},{"start":27.28,"end":27.7,"pitch":66,"velocity":100},{"start":27.7,"end":28.04,"pitch":67,"velocity":100},{"start":28.04,"end":29.1,"pitch":69,"velocity":100},{"start":29.2,"end":29.56,"pitch":61,"velocity":100},{"start":29.56,"end":30.08,"pitch":62,"velocity":100},{"start":30.62,"end":30.94,"pitch":66,"velocity":100},{"start":30.98,"end":31.18,"pitch":66,"velocity":100},{"start":31.18,"end":31.64,"pitch":67,"velocity":100},{"start":32.24,"end":32.42,"pitch":67,"velocity":100},{"start":32.46,"end":32.62,"pitch":67,"velocity":100},{"start":32.62,"end":33.04,"pitch":66,"velocity":100},{"start":33.04,"end":33.42,"pitch":64,"velocity":100},{"start":33.42,"end":33.8,"pitch":62,"velocity":100},{"start":33.8,"end":34.1,"pitch":61,"velocity":100},{"start":34.1,"end":34.34,"pitch":64,"velocity":100},{"start":34.34,"end":35.4,"pitch":62,"velocity":100},{"start":38.06,"end":38.44,"pitch":62,"velocity":100},{"start":38.44,"end":38.68,"pitch":61,"velocity":100},{"start":38.68,"end":39.34,"pitch":62,"velocity":100},{"start":39.62,"end":39.98,"pitch":54,"velocity":100},{"start":39.98,"end":40.26,"pitch":55,"velocity":100},{"start":40.26,"end":40.92,"pitch":57,"velocity":100},{"start":44.24,"end":44.58,"pitch":59,"velocity":100},{"start":44.62,"end":44.82,"pitch":59,"velocity":100},{"start":44.86,"end":45.36,"pitch":59,"velocity":100},{"start":45.36,"end":45.76,"pitch":57,"velocity":100},{"start":45.76,"end":46.1,"pitch":55,"velocity":100},{"start":46.1,"end":46.54,"pitch":59,"velocity":100},{"start":46.54,"end":46.86,"pitch":56,"velocity":100},{"start":46.86,"end":47.22,"pitch":52,"velocity":100},{"start":47.22,"end":48.1,"pitch":54,"velocity":100},{"start":49.66,"end":50.68,"pitch":55,"velocity":100},{"start":50.68,"end":51.82,"pitch":57,"velocity":100},{"start":52.32,"end":52.7,"pitch":54,"velocity":100},{"start":52.7,"end":53.56,"pitch":57,"velocity":100},{"start":53.82,"end":54.22,"pitch":59,"velocity":100},{"start":54.26,"end":55.22,"pitch":59,"velocity":100},{"start":56.56,"end":56.92,"pitch":55,"velocity":100},{"start":56.92,"end":57.3,"pitch":59,"velocity":100},{"start":57.34,"end":57.68,"pitch":59,"velocity":100},{"start":57.68,"end":58.16,"pitch":62,"velocity":100},{"start":58.46,"end":58.62,"pitch":62,"velocity":100},{"start":58.62,"end":58.84,"pitch":64,"velocity":100},{"start":58.84,"end":59.18,"pitch":61,"velocity":100},{"start":59.18,"end":59.56,"pitch":59,"velocity":100},{"start":59.6,"end":59.98,"pitch":59,"velocity":100},{"start":59.98,"end":60.66,"pitch":57,"velocity":100},{"start":62.7,"end":63.08,"pitch":62,"velocity":100},{"start":63.08,"end":63.3,"pitch":61,"velocity":100},{"start":63.3,"end":63.84,"pitch":62,"velocity":100},{"start":63.88,"end":64.22,"pitch":62,"velocity":100},{"start":64.22,"end":64.62,"pitch":54,"velocity":100},{"start":64.66,"end":65,"pitch":54,"velocity":100},{"start":65,"end":65.84,"pitch":57,"velocity":100},{"start":66.54,"end":66.86,"pitch":59,"velocity":100},{"start":66.86,"end":67.28,"pitch":57,"velocity":100},{"start":67.28,"end":67.68,"pitch":55,"velocity":100},{"start":67.68,"end":68.06,"pitch":54,"velocity":100},{"start":68.06,"end":68.58,"pitch":55,"velocity":100},{"start":69.24,"end":69.62,"pitch":55,"velocity":100},{"start":69.62,"end":70.42,"pitch":58,"velocity":100},{"start":70.74,"end":71.12,"pitch":57,"velocity":100},{"start":71.12,"end":71.42,"pitch":55,"velocity":100},{"start":71.42,"end":72.42,"pitch":57,"velocity":100},{"start":75.02,"end":75.4,"pitch":59,"velocity":100},{"start":75.4,"end":75.78,"pitch":61,"velocity":100},{"start":75.78,"end":76.16,"pitch":62,"velocity":100},{"start":76.2,"end":76.54,"pitch":62,"velocity":100},{"start":76.58,"end":76.92,"pitch":62,"velocity":100},{"start":76.92,"end":77.3,"pitch":64,"velocity":100},{"start":77.3,"end":78,"pitch":66,"velocity":100},{"start":78.48,"end":78.78,"pitch":66,"velocity":100},{"start":78.78,"end":79.18,"pitch":67,"velocity":100},{"start":79.18,"end":79.56,"pitch":66,"velocity":100},{"start":79.56,"end":79.84,"pitch":64,"velocity":100},{"start":79.84,"end":80.14,"pitch":62,"velocity":100},{"start":80.14,"end":80.88,"pitch":64,"velocity":100},{"start":81.4,"end":81.68,"pitch":59,"velocity":100},{"start":81.72,"end":81.94,"pitch":59,"velocity":100},{"start":81.94,"end":82.36,"pitch":62,"velocity":100},{"start":82.7,"end":83.02,"pitch":61,"velocity":100},{"start":83.08,"end":83.28,"pitch":62,"velocity":100},{"start":83.28,"end":83.6,"pitch":64,"velocity":100},{"start":83.64,"end":84.08,"pitch":64,"velocity":100},{"start":84.08,"end":85.2,"pitch":62,"velocity":100},{"start":87.36,"end":87.68,"pitch":62,"velocity":100},{"start":87.68,"end":87.94,"pitch":61,"velocity":100},{"start":87.94,"end":88.74,"pitch":62,"velocity":100},{"start":88.84,"end":89.2,"pitch":54,"velocity":100},{"start":89.2,"end":89.62,"pitch":55,"velocity":100},{"start":89.62,"end":90.5,"pitch":57,"velocity":100},{"start":93.48,"end":93.82,"pitch":59,"velocity":100},{"start":93.86,"end":94.02,"pitch":59,"velocity":100},{"start":94.06,"end":94.5,"pitch":59,"velocity":100},{"start":94.6,"end":95,"pitch":57,"velocity":100},{"start":95,"end":95.36,"pitch":55,"velocity":100},{"start":95.36,"end":95.76,"pitch":59,"velocity":100},{"start":95.76,"end":96.14,"pitch":57,"velocity":100},{"start":96.14,"end":96.54,"pitch":52,"velocity":100},{"start":96.58,"end":96.74,"pitch":55,"velocity":100},{"start":96.74,"end":97.2,"pitch":54,"velocity":100},{"start":98.48,"end":98.84,"pitch":55,"velocity":100},{"start":98.88,"end":99.24,"pitch":55,"velocity":100},{"start":99.28,"end":100,"pitch":55,"velocity":100},{"start":100,"end":100.38,"pitch":57,"velocity":100},{"start":100.42,"end":100.96,"pitch":57,"velocity":100},{"start":101.56,"end":101.62,"pitch":55,"velocity":100},{"start":101.62,"end":101.9,"pitch":54,"velocity":100},{"start":101.94,"end":102.72,"pitch":57,"velocity":100},{"start":103.04,"end":103.44,"pitch":59,"velocity":100},{"start":103.48,"end":104.32,"pitch":59,"velocity":100},{"start":105.78,"end":106.14,"pitch":55,"velocity":100},{"start":106.14,"end":106.52,"pitch":59,"velocity":100},{"start":106.56,"end":106.94,"pitch":59,"velocity":100},{"start":106.94,"end":107.3,"pitch":62,"velocity":100},{"start":107.34,"end":107.68,"pitch":62,"velocity":100},{"start":107.68,"end":108.02,"pitch":64,"velocity":100},{"start":108.02,"end":108.44,"pitch":61,"velocity":100},{"start":108.44,"end":108.84,"pitch":59,"velocity":100},{"start":108.88,"end":109.2,"pitch":59,"velocity":100},{"start":109.2,"end":109.82,"pitch":57,"velocity":100},{"start":111.56,"end":111.92,"pitch":62,"velocity":100},{"start":111.96,"end":112.3,"pitch":62,"velocity":100},{"start":112.3,"end":112.68,"pitch":61,"velocity":100},{"start":112.68,"end":113.08,"pitch":62,"velocity":100},{"start":113.12,"end":113.46,"pitch":62,"velocity":100},{"start":113.46,"end":113.86,"pitch":54,"velocity":100},{"start":113.86,"end":114.24,"pitch":55,"velocity":100},{"start":114.24,"end":115.1,"pitch":57,"velocity":100},{"start":115.78,"end":116.16,"pitch":59,"velocity":100},{"start":116.16,"end":116.5,"pitch":57,"velocity":100},{"start":116.5,"end":116.92,"pitch":55,"velocity":100},{"start":116.92,"end":117.28,"pitch":54,"velocity":100},{"start":117.32,"end":117.94,"pitch":55,"velocity":100},{"start":118.44,"end":118.6,"pitch":54,"velocity":100},{"start":118.6,"end":118.92,"pitch":55,"velocity":100},{"start":118.92,"end":120,"pitch":58,"velocity":100},{"start":120,"end":120.38,"pitch":57,"velocity":100},{"start":120.38,"end":120.74,"pitch":55,"velocity":100},{"start":120.74,"end":121.2,"pitch":58,"velocity":100},{"start":121.2,"end":122.18,"pitch":57,"velocity":100},{"start":124.24,"end":124.62,"pitch":59,"velocity":100},{"start":124.62,"end":125,"pitch":61,"velocity":100},{"start":125,"end":125.42,"pitch":62,"velocity":100},{"start":125.46,"end":125.78,"pitch":62,"velocity":100},{"start":125.82,"end":126.16,"pitch":62,"velocity":100},{"start":126.16,"end":126.56,"pitch":64,"velocity":100},{"start":126.56,"end":126.6,"pitch":66,"velocity":100},{"start":126.6,"end":126.7,"pitch":67,"velocity":100},{"start":126.7,"end":127.1,"pitch":66,"velocity":100},{"start":127.72,"end":128.06,"pitch":66,"velocity":100},{"start":128.06,"end":128.4,"pitch":67,"velocity":100},{"start":128.4,"end":128.82,"pitch":66,"velocity":100},{"start":128.82,"end":129.2,"pitch":64,"velocity":100},{"start":129.2,"end":129.56,"pitch":62,"velocity":100},{"start":129.56,"end":130.16,"pitch":64,"velocity":100},{"start":130.66,"end":131.18,"pitch":59,"velocity":100},{"start":131.18,"end":131.58,"pitch":61,"velocity":100},{"start":131.92,"end":132.26,"pitch":61,"velocity":100},{"start":132.26,"end":132.48,"pitch":62,"velocity":100},{"start":132.48,"end":132.68,"pitch":64,"velocity":100},{"start":132.72,"end":133.2,"pitch":64,"velocity":100},{"start":133.2,"end":134.52,"pitch":62,"velocity":100},{"start":135.4,"end":135.54,"pitch":59,"velocity":100},{"start":135.58,"end":135.76,"pitch":59,"velocity":100},{"start":135.76,"end":136.14,"pitch":67,"velocity":100},{"start":136.14,"end":136.52,"pitch":66,"velocity":100},{"start":136.52,"end":136.92,"pitch":67,"velocity":100},{"start":136.92,"end":137.68,"pitch":62,"velocity":100},{"start":138.32,"end":138.46,"pitch":59,"velocity":100},{"start":138.5,"end":138.62,"pitch":59,"velocity":100},{"start":138.66,"end":138.82,"pitch":59,"velocity":100},{"start":138.82,"end":139.2,"pitch":69,"velocity":100},{"start":139.2,"end":139.58,"pitch":67,"velocity":100},{"start":139.58,"end":139.94,"pitch":69,"velocity":100},{"start":139.94,"end":140.18,"pitch":67,"velocity":100},{"start":140.18,"end":140.74,"pitch":66,"velocity":100},{"start":141.36,"end":141.54,"pitch":66,"velocity":100},{"start":141.58,"end":141.72,"pitch":66,"velocity":100},{"start":141.72,"end":141.94,"pitch":64,"velocity":100},{"start":141.94,"end":142.52,"pitch":62,"velocity":100},{"start":142.94,"end":143.08,"pitch":59,"velocity":100},{"start":143.12,"end":143.28,"pitch":59,"velocity":100},{"start":143.28,"end":143.46,"pitch":61,"velocity":100},{"start":143.46,"end":143.84,"pitch":62,"velocity":100},{"start":143.84,"end":144.22,"pitch":59,"velocity":100},{"start":144.22,"end":144.6,"pitch":62,"velocity":100},{"start":144.6,"end":144.96,"pitch":66,"velocity":100},{"start":145,"end":145.36,"pitch":66,"velocity":100},{"start":145.36,"end":146.56,"pitch":64,"velocity":100},{"start":147.3,"end":147.64,"pitch":66,"velocity":100},{"start":147.64,"end":148.04,"pitch":64,"velocity":100},{"start":148.04,"end":148.76,"pitch":62,"velocity":100},{"start":149.24,"end":149.6,"pitch":62,"velocity":100},{"start":149.64,"end":149.98,"pitch":62,"velocity":100},{"start":149.98,"end":150.34,"pitch":64,"velocity":100},{"start":150.34,"end":150.76,"pitch":66,"velocity":100},{"start":150.76,"end":151.14,"pitch":67,"velocity":100},{"start":151.14,"end":151.68,"pitch":66,"velocity":100},{"start":152.32,"end":152.64,"pitch":67,"velocity":100},{"start":152.64,"end":153.04,"pitch":64,"velocity":100},{"start":153.04,"end":153.24,"pitch":62,"velocity":100},{"start":153.28,"end":153.8,"pitch":64,"velocity":100},{"start":153.8,"end":154.06,"pitch":61,"velocity":100},{"start":154.06,"end":154.8,"pitch":62,"velocity":100},{"start":155.24,"end":155.62,"pitch":59,"velocity":100},{"start":155.62,"end":155.9,"pitch":61,"velocity":100},{"start":155.9,"end":156.18,"pitch":62,"velocity":100},{"start":156.54,"end":156.92,"pitch":62,"velocity":100},{"start":156.92,"end":157.26,"pitch":64,"velocity":100},{"start":157.26,"end":157.7,"pitch":66,"velocity":100},{"start":157.7,"end":158.82,"pitch":61,"velocity":100},{"start":159.62,"end":160,"pitch":62,"velocity":100},{"start":160,"end":160.36,"pitch":61,"velocity":100},{"start":160.36,"end":161.12,"pitch":59,"velocity":100},{"start":161.54,"end":161.9,"pitch":71,"velocity":100},{"start":161.9,"end":162.26,"pitch":69,"velocity":100},{"start":162.26,"end":162.66,"pitch":67,"velocity":100},{"start":162.66,"end":163.08,"pitch":66,"velocity":100},{"start":163.08,"end":163.4,"pitch":67,"velocity":100},{"start":163.4,"end":164.46,"pitch":69,"velocity":100},{"start":164.62,"end":164.68,"pitch":62,"velocity":100},{"start":164.68,"end":164.94,"pitch":61,"velocity":100},{"start":164.94,"end":165.62,"pitch":62,"velocity":100},{"start":166.04,"end":166.56,"pitch":66,"velocity":100},{"start":166.56,"end":167.16,"pitch":67,"velocity":100},{"start":167.68,"end":167.84,"pitch":67,"velocity":100},{"start":167.88,"end":168.02,"pitch":67,"velocity":100},{"start":168.02,"end":168.46,"pitch":66,"velocity":100},{"start":168.46,"end":168.82,"pitch":64,"velocity":100},{"start":168.82,"end":169.2,"pitch":62,"velocity":100},{"start":169.2,"end":169.4,"pitch":61,"velocity":100},{"start":169.46,"end":169.68,"pitch":64,"velocity":100},{"start":169.68,"end":171.48,"pitch":62,"velocity":100},{"start":196.9,"end":197.28,"pitch":59,"velocity":100},{"start":197.28,"end":197.66,"pitch":67,"velocity":100},{"start":197.66,"end":198.06,"pitch":66,"velocity":100},{"start":198.06,"end":198.46,"pitch":67,"velocity":100},{"start":198.46,"end":199.18,"pitch":62,"velocity":100},{"start":199.84,"end":200,"pitch":59,"velocity":100},{"start":200.04,"end":200.16,"pitch":59,"velocity":100},{"start":200.2,"end":200.36,"pitch":59,"velocity":100},{"start":200.36,"end":200.74,"pitch":69,"velocity":100},{"start":200.74,"end":201.14,"pitch":67,"velocity":100},{"start":201.18,"end":201.5,"pitch":69,"velocity":100},{"start":201.5,"end":201.7,"pitch":67,"velocity":100},{"start":201.7,"end":202.32,"pitch":66,"velocity":100},{"start":202.92,"end":203.06,"pitch":66,"velocity":100},{"start":203.1,"end":203.26,"pitch":66,"velocity":100},{"start":203.26,"end":203.46,"pitch":64,"velocity":100},{"start":203.46,"end":204,"pitch":62,"velocity":100},{"start":204.46,"end":204.8,"pitch":59,"velocity":100},{"start":204.8,"end":205.34,"pitch":61,"velocity":100},{"start":205.34,"end":205.78,"pitch":59,"velocity":100},{"start":205.78,"end":206.16,"pitch":62,"velocity":100},{"start":206.16,"end":206.44,"pitch":66,"velocity":100},{"start":206.56,"end":206.9,"pitch":66,"velocity":100},{"start":206.9,"end":207.16,"pitch":64,"velocity":100},{"start":207.2,"end":208.34,"pitch":64,"velocity":100},{"start":208.84,"end":209.22,"pitch":66,"velocity":100},{"start":209.22,"end":209.6,"pitch":64,"velocity":100},{"start":209.6,"end":210.34,"pitch":62,"velocity":100},{"start":210.8,"end":211.14,"pitch":62,"velocity":100},{"start":211.18,"end":211.54,"pitch":62,"velocity":100},{"start":211.54,"end":211.9,"pitch":64,"velocity":100},{"start":211.9,"end":212.32,"pitch":66,"velocity":100},{"start":212.32,"end":212.68,"pitch":67,"velocity":100},{"start":212.68,"end":213.38,"pitch":66,"velocity":100},{"start":213.86,"end":214.22,"pitch":67,"velocity":100},{"start":214.22,"end":214.6,"pitch":64,"velocity":100},{"start":214.6,"end":214.86,"pitch":62,"velocity":100},{"start":214.86,"end":215.32,"pitch":64,"velocity":100},{"start":215.32,"end":215.58,"pitch":61,"velocity":100},{"start":215.58,"end":216.36,"pitch":62,"velocity":100},{"start":216.76,"end":217.12,"pitch":59,"velocity":100},{"start":217.12,"end":217.38,"pitch":62,"velocity":100},{"start":217.42,"end":217.8,"pitch":62,"velocity":100},{"start":218.12,"end":218.48,"pitch":62,"velocity":100},{"start":218.48,"end":218.84,"pitch":64,"velocity":100},{"start":218.84,"end":219.26,"pitch":66,"velocity":100},{"start":219.26,"end":219.62,"pitch":61,"velocity":100},{"start":219.66,"end":220.32,"pitch":61,"velocity":100},{"start":221.16,"end":221.52,"pitch":62,"velocity":100},{"start":221.52,"end":221.9,"pitch":61,"velocity":100},{"start":221.9,"end":222.64,"pitch":59,"velocity":100},{"start":223.08,"end":223.44,"pitch":71,"velocity":100},{"start":223.44,"end":223.82,"pitch":69,"velocity":100},{"start":223.82,"end":224.22,"pitch":67,"velocity":100},{"start":224.22,"end":224.6,"pitch":66,"velocity":100},{"start":224.6,"end":224.96,"pitch":67,"velocity":100},{"start":224.96,"end":226.06,"pitch":69,"velocity":100},{"start":226.14,"end":226.52,"pitch":62,"velocity":100},{"start":226.56,"end":227.18,"pitch":62,"velocity":100},{"start":227.56,"end":227.88,"pitch":66,"velocity":100},{"start":227.92,"end":228.08,"pitch":66,"velocity":100},{"start":228.08,"end":228.78,"pitch":67,"velocity":100},{"start":229.26,"end":229.42,"pitch":67,"velocity":100},{"start":229.46,"end":229.6,"pitch":67,"velocity":100},{"start":229.6,"end":229.98,"pitch":66,"velocity":100},{"start":229.98,"end":230.36,"pitch":64,"velocity":100},{"start":230.36,"end":230.74,"pitch":62,"velocity":100},{"start":230.74,"end":230.96,"pitch":61,"velocity":100},{"start":230.96,"end":231.2,"pitch":64,"velocity":100},{"start":231.2,"end":232.5,"pitch":62,"velocity":100},{"start":233.44,"end":233.84,"pitch":66,"velocity":100},{"start":233.84,"end":234.2,"pitch":64,"velocity":100},{"start":234.2,"end":234.98,"pitch":62,"velocity":100},{"start":235.4,"end":235.76,"pitch":62,"velocity":100},{"start":235.8,"end":236.14,"pitch":62,"velocity":100},{"start":236.14,"end":236.5,"pitch":64,"velocity":100},{"start":236.5,"end":236.92,"pitch":66,"velocity":100},{"start":236.92,"end":237.32,"pitch":67,"velocity":100},{"start":237.32,"end":237.94,"pitch":66,"velocity":100},{"start":238.46,"end":238.82,"pitch":67,"velocity":100},{"start":238.82,"end":239.22,"pitch":64,"velocity":100},{"start":239.22,"end":239.44,"pitch":62,"velocity":100},{"start":239.44,"end":239.98,"pitch":64,"velocity":100},{"start":239.98,"end":240.94,"pitch":62,"velocity":100},{"start":241.38,"end":241.74,"pitch":59,"velocity":100},{"start":241.74,"end":241.98,"pitch":61,"velocity":100},{"start":241.98,"end":242.44,"pitch":62,"velocity":100},{"start":242.74,"end":243.1,"pitch":62,"velocity":100},{"start":243.1,"end":243.46,"pitch":64,"velocity":100},{"start":243.46,"end":243.86,"pitch":66,"velocity":100},{"start":243.86,"end":244.94,"pitch":61,"velocity":100},{"start":245.78,"end":246.14,"pitch":62,"velocity":100},{"start":246.14,"end":246.48,"pitch":61,"velocity":100},{"start":246.48,"end":247.26,"pitch":59,"velocity":100},{"start":247.7,"end":248.06,"pitch":71,"velocity":100},{"start":248.06,"end":248.42,"pitch":69,"velocity":100},{"start":248.42,"end":248.84,"pitch":67,"velocity":100},{"start":248.84,"end":249.22,"pitch":66,"velocity":100},{"start":249.22,"end":249.58,"pitch":67,"velocity":100},{"start":249.58,"end":250.7,"pitch":69,"velocity":100},{"start":250.78,"end":251.02,"pitch":61,"velocity":100},{"start":251.14,"end":251.4,"pitch":64,"velocity":100},{"start":251.4,"end":251.86,"pitch":62,"velocity":100},{"start":252.18,"end":252.7,"pitch":66,"velocity":100},{"start":252.7,"end":253.34,"pitch":67,"velocity":100},{"start":253.86,"end":254.18,"pitch":67,"velocity":100},{"start":254.18,"end":254.6,"pitch":66,"velocity":100},{"start":254.6,"end":254.96,"pitch":64,"velocity":100},{"start":254.96,"end":255.58,"pitch":62,"velocity":100},{"start":255.58,"end":255.78,"pitch":64,"velocity":100},{"start":255.78,"end":257.38,"pitch":62,"velocity":100},{"start":258.88,"end":259.56,"pitch":57,"velocity":100},{"start":260.04,"end":260.36,"pitch":62,"velocity":100},{"start":260.4,"end":260.78,"pitch":62,"velocity":100},{"start":260.78,"end":261.12,"pitch":57,"velocity":100},{"start":261.16,"end":261.46,"pitch":57,"velocity":100},{"start":261.52,"end":261.9,"pitch":69,"velocity":100},{"start":261.9,"end":262.46,"pitch":67,"velocity":100},{"start":262.5,"end":264.02,"pitch":67,"velocity":100},{"start":264.6,"end":264.96,"pitch":62,"velocity":100},{"start":264.96,"end":265.34,"pitch":67,"velocity":100},{"start":265.38,"end":265.56,"pitch":67,"velocity":100},{"start":265.6,"end":266.16,"pitch":67,"velocity":100},{"start":266.56,"end":267.16,"pitch":67,"velocity":100},{"start":267.16,"end":267.72,"pitch":66,"velocity":100},{"start":267.72,"end":268.26,"pitch":64,"velocity":100},{"start":268.26,"end":269.34,"pitch":62,"velocity":100},{"start":272.4,"end":273.06,"pitch":61,"velocity":100},{"start":273.14,"end":273.6,"pitch":64,"velocity":100},{"start":273.6,"end":277.1,"pitch":62,"velocity":100}],"confidence":0.7598156}